<svg xmlns="http://www.w3.org/2000/svg" xmlns:xlink="http://www.w3.org/1999/xlink" version="1.1" id="Capa_1" x="0px" y="0px" width="90px" height="90px" viewBox="0 0 90 90" enable-background="new 0 0 90 90" xml:space="preserve">
<g>
	<polygon points="44.626,66.998 44.625,67 54.251,76.627 63.877,67 63.876,66.998 54.251,76.623  "/>
	<rect x="11.631" y="51.853" transform="matrix(-0.7071 0.7071 -0.7071 -0.7071 68.1383 75.4852)" width="13.612" height="0"/>
	<path d="M16.279,10.529c0.013,0.051,0.115,0.484,0.248,1.177c1.225,0.429,2.109,1.582,2.109,2.954c0,1.113-0.582,2.085-1.455,2.644   c0.013,0.356,0.023,0.715,0.023,1.078c0,0.313-0.162,0.604-0.43,0.769c-0.089,0.055-0.574,0.33-1.271,0.33l0,0   c0.697,0,1.182-0.275,1.271-0.33c0.268-0.165,0.43-0.456,0.43-0.769c0-0.363-0.01-0.722-0.023-1.078   c0.872-0.559,1.455-1.531,1.455-2.644c0-1.371-0.884-2.525-2.109-2.954C16.395,11.014,16.292,10.581,16.279,10.529   c-0.097-0.405-0.46-0.69-0.876-0.69c0,0,0,0-0.001,0C15.818,9.839,16.181,10.125,16.279,10.529z"/>
	<polygon points="29.668,39.208 32.877,36 28.063,31.187 32.876,36  "/>
	<polygon points="28.063,51.854 32.876,56.666 23.25,66.293 32.877,56.666  "/>
	<polygon points="74.211,56.666 64.584,47.041 64.582,47.043 74.207,56.666 64.582,66.291 64.584,66.293  "/>
	<polygon points="44.626,46.334 54.251,36.708 63.876,46.334 63.877,46.334 54.251,36.707 44.625,46.334  "/>
	<polygon points="43.211,67 33.584,57.373 33.584,57.373 43.207,66.998 33.581,76.623 33.584,76.627  "/>
	<polygon points="34.291,56.666 40.067,62.441 34.292,56.666  "/>
	<path d="M63.725,18.47c-0.555,0-1.004-0.45-1.004-1.004c0-0.554,0.449-1.004,1.004-1.004c-0.555,0-1.006,0.45-1.006,1.004   C62.719,18.02,63.17,18.47,63.725,18.47z"/>
	<path d="M63.725,12.964c-0.555,0-1.004-0.449-1.004-1.004c0-0.416,0.254-0.772,0.613-0.925c-0.361,0.152-0.615,0.509-0.615,0.925   C62.719,12.515,63.17,12.964,63.725,12.964z"/>
	<path d="M63.725,13.978c0.976,0,1.789-0.691,1.978-1.61C65.514,13.287,64.699,13.978,63.725,13.978z"/>
	<path d="M13.879,11.967c0.126-0.076,0.258-0.142,0.396-0.2C14.137,11.826,14.005,11.892,13.879,11.967z"/>
	<polygon points="72.592,19.48 72.593,19.481 73.546,18.458 72.57,15.046 72.568,15.046 73.545,18.458  "/>
	<path d="M63.725,19.482c0.976,0,1.789-0.691,1.978-1.61C65.514,18.792,64.699,19.482,63.725,19.482z"/>
	<path d="M25.594,17.147c-0.089,0.7-0.126,1.144-0.13,1.196c-0.033,0.415,0.223,0.799,0.619,0.928   c0.004,0.001,0.007,0.002,0.01,0.003c0.101,0.032,0.203,0.044,0.304,0.041c-0.101,0.003-0.203-0.01-0.303-0.041   c-0.003-0.001-0.006-0.002-0.01-0.003c-0.396-0.129-0.652-0.513-0.619-0.928c0.005-0.052,0.041-0.496,0.13-1.196   c-0.751-0.574-1.243-1.469-1.242-2.487c0-1.461,1.002-2.678,2.354-3.029c0.098-0.345,0.201-0.692,0.314-1.04   c0.098-0.298,0.342-0.524,0.646-0.598c0.052-0.012,0.214-0.045,0.446-0.05c-0.232,0.004-0.395,0.038-0.447,0.05   c-0.304,0.074-0.548,0.3-0.646,0.598c-0.113,0.348-0.216,0.695-0.314,1.04c-1.352,0.351-2.354,1.568-2.355,3.029   C24.351,15.679,24.844,16.574,25.594,17.147z"/>
	<polygon points="34.291,36 43.918,45.625 43.918,45.625 34.293,36 43.919,26.375 43.918,26.374  "/>
	<path d="M41.371,12.497c0.537,0.564,0.872,1.324,0.872,2.164C42.243,13.819,41.908,13.061,41.371,12.497z"/>
	<path d="M49.366,17.293c-0.011,0.652-0.003,1.061,0,1.112c0.009,0.334,0.2,0.635,0.497,0.784c0.391,0.194,0.8,0.292,1.218,0.292   h0.001c-0.418,0-0.826-0.098-1.216-0.292c-0.298-0.149-0.489-0.45-0.498-0.784c-0.002-0.051-0.011-0.461,0-1.112   c-0.862-0.56-1.437-1.527-1.435-2.633c0-1.307,0.799-2.427,1.937-2.9c0.067-0.402,0.144-0.808,0.233-1.212   c0.09-0.41,0.451-0.705,0.871-0.709c-0.002,0-0.002,0-0.002,0c-0.422,0.004-0.781,0.299-0.871,0.709   c-0.088,0.404-0.166,0.81-0.233,1.212c-1.138,0.473-1.937,1.593-1.938,2.9C47.93,15.766,48.504,16.733,49.366,17.293z"/>
	<path d="M36.387,16.217c-0.265-0.461-0.428-0.988-0.428-1.557C35.959,15.23,36.122,15.756,36.387,16.217z"/>
	<polygon points="64.584,26.374 64.583,26.375 74.209,36 64.583,45.625 64.584,45.625 74.211,36  "/>
	<rect x="22.15" y="30.554" transform="matrix(0.7072 0.7071 -0.7071 0.7072 30.051 -11.4486)" width="13.394" height="0.001"/>
	<rect x="42.819" y="30.557" transform="matrix(0.7071 0.7071 -0.7071 0.7071 36.1119 -26.0628)" width="13.393" height="0.001"/>
	<polygon points="12.913,35.292 12.914,35.292 5.5,27.875  "/>
	<polygon points="33.584,55.959 33.585,55.959 23.96,46.334 33.586,36.708 33.584,36.707 23.957,46.334  "/>
	
		<rect x="57.776" y="29.194" transform="matrix(-0.7071 0.7071 -0.7071 -0.7071 135.7039 15.7886)" width="13.612" height="13.612"/>
	<rect x="57.776" y="49.861" transform="matrix(-0.7071 0.7071 -0.7071 -0.7071 150.316 51.0736)" width="13.61" height="13.61"/>
	<rect x="47.445" y="39.529" transform="matrix(0.7071 0.7071 -0.7071 0.7071 48.6539 -24.7899)" width="13.612" height="13.612"/>
	<rect x="26.78" y="39.53" transform="matrix(0.7071 -0.7071 0.7071 0.7071 -22.9274 37.3203)" width="13.612" height="13.612"/>
	<polygon points="5.5,49.957 5.5,63.377 12.21,56.666  "/>
	<rect x="37.113" y="29.195" transform="matrix(0.7071 -0.7071 0.7071 0.7071 -12.5928 41.6002)" width="13.613" height="13.612"/>
	<rect x="47.445" y="60.194" transform="matrix(0.7071 0.7071 -0.7071 0.7071 63.2659 -18.7374)" width="13.612" height="13.612"/>
	<polygon points="28.063,51.854 23.25,47.041 13.625,56.668 23.25,66.293 32.876,56.666  "/>
	<polygon points="43.918,47.041 34.292,56.666 40.067,62.441 43.917,66.293 53.543,56.666  "/>
	<path d="M81,0H9C4.029,0,0,4.028,0,9v72c0,4.971,4.029,9,9,9h72c4.971,0,9-4.029,9-9V9C90,4.028,85.971,0,81,0z M85.5,25.823V81   c0,2.48-2.02,4.5-4.5,4.5H9c-2.481,0-4.5-2.02-4.5-4.5V25.823V9c0-2.481,2.019-4.5,4.5-4.5h72c2.48,0,4.5,2.019,4.5,4.5V25.823z"/>
	<polygon points="22.543,46.334 12.917,36.707 5.5,44.125 5.5,48.543 12.917,55.959  "/>
	<polygon points="5.5,29.29 5.5,42.709 12.21,36  "/>
	<polygon points="22.543,67 12.917,57.373 5.5,64.791 5.5,69.209 12.917,76.627  "/>
	<rect x="26.776" y="60.19" transform="matrix(-0.7071 0.7071 -0.7071 -0.7071 104.7039 90.6189)" width="13.614" height="13.611"/>
	<polygon points="23.25,45.625 29.668,39.208 32.876,36 28.063,31.187 23.25,26.374 13.625,36  "/>
	<polygon points="65.291,67 74.918,76.627 84.5,67.045 84.5,66.955 74.918,57.373  "/>
	<polygon points="84.5,65.541 84.5,47.793 75.625,56.666  "/>
	<polygon points="65.291,46.334 74.918,55.959 84.5,46.379 84.5,46.289 74.918,36.707  "/>
	<path d="M68.459,84.5H81c0.117,0,0.229-0.023,0.343-0.035l-6.425-6.424L68.459,84.5z"/>
	<path d="M82.456,84.164C83.658,83.611,84.5,82.408,84.5,81V68.459l-8.875,8.875L82.456,84.164z"/>
	<path d="M5.5,70.623V81c0,0.85,0.315,1.617,0.82,2.225l5.89-5.891L5.5,70.623z"/>
	<polygon points="5.5,25.821 5.5,27.875 12.914,35.292 22.383,25.823 22.384,25.823 24.11,25.823 24.111,25.823 33.582,35.292    43.052,25.823 43.053,25.823 44.779,25.823 44.78,25.823 54.25,35.292 63.721,25.823 65.447,25.823 74.918,35.292 84.5,25.703    84.5,24.823 5.5,24.823  "/>
	<polygon points="84.5,44.875 84.5,27.125 75.625,36  "/>
	<polygon points="23.25,67.707 13.624,77.334 20.789,84.5 25.711,84.5 32.877,77.334  "/>
	<polygon points="64.584,67.707 54.958,77.334 62.123,84.5 67.045,84.5 74.211,77.334  "/>
	<path d="M7.054,83.906C7.61,84.279,8.28,84.5,9,84.5h10.375l-6.458-6.459L7.054,83.906z"/>
	<polygon points="27.125,84.5 40.043,84.5 33.584,78.041  "/>
	<polygon points="47.793,84.5 60.709,84.5 54.251,78.041  "/>
	<polygon points="43.918,67.707 34.291,77.334 41.457,84.5 46.379,84.5 53.544,77.334  "/>
	<path d="M13.789,17.294c-0.012,0.651-0.002,1.061-0.001,1.111c0.009,0.334,0.201,0.635,0.498,0.784   c0.39,0.194,0.799,0.292,1.217,0.292l0,0c0.697,0,1.182-0.275,1.271-0.33c0.268-0.165,0.43-0.456,0.43-0.769   c0-0.363-0.01-0.722-0.023-1.078c0.873-0.559,1.455-1.531,1.455-2.644c0-1.372-0.884-2.525-2.109-2.954   c-0.133-0.693-0.235-1.126-0.248-1.177c-0.098-0.405-0.461-0.69-0.877-0.69c-0.002,0-0.005,0-0.009,0c0,0,0,0-0.001,0   c-0.42,0.004-0.781,0.299-0.871,0.709c-0.088,0.404-0.165,0.81-0.233,1.212c-0.005,0.002-0.009,0.005-0.014,0.007   c-0.137,0.058-0.27,0.124-0.396,0.2c-0.915,0.549-1.528,1.549-1.528,2.693C12.352,15.767,12.926,16.733,13.789,17.294z"/>
	<path d="M27.021,10.591c-0.113,0.348-0.216,0.695-0.314,1.04c-1.352,0.351-2.354,1.568-2.354,3.029   c-0.001,1.018,0.491,1.913,1.242,2.487c-0.089,0.7-0.125,1.144-0.13,1.196c-0.033,0.415,0.223,0.799,0.619,0.928   c0.004,0.001,0.007,0.002,0.01,0.003c0.1,0.031,0.202,0.044,0.303,0.041c0.302-0.011,0.587-0.173,0.747-0.445   c0.212-0.362,0.413-0.729,0.605-1.095c1.613-0.132,2.886-1.468,2.886-3.115c0-0.748-0.272-1.425-0.708-1.965   c0.216-0.623,0.335-1.02,0.35-1.068c0.095-0.319,0.006-0.666-0.231-0.899c-0.308-0.305-0.668-0.525-1.066-0.655   c-0.332-0.108-0.634-0.134-0.866-0.13c-0.232,0.004-0.394,0.038-0.446,0.05C27.363,10.067,27.119,10.293,27.021,10.591z"/>
	<path d="M36.908,18.956c0.621,0.317,1.178,0.293,1.284,0.286c0.312-0.024,0.589-0.209,0.732-0.488   c0.167-0.327,0.325-0.654,0.477-0.981c1.592-0.153,2.842-1.479,2.842-3.112c0-0.84-0.335-1.6-0.872-2.164   c0.197-0.672,0.302-1.102,0.315-1.152c0.097-0.406-0.096-0.825-0.466-1.015c-0.003-0.001-0.006-0.003-0.009-0.004   c-0.375-0.188-0.832-0.091-1.1,0.233c-0.267,0.323-0.522,0.653-0.77,0.984c-0.081-0.006-0.158-0.024-0.24-0.024   c-1.735,0-3.142,1.407-3.142,3.142c0,0.569,0.163,1.096,0.428,1.557c-0.311,0.58-0.491,0.952-0.513,0.998   c-0.145,0.301-0.11,0.656,0.085,0.925C36.217,18.491,36.537,18.765,36.908,18.956z"/>
	<path d="M50.104,10.548c-0.09,0.404-0.166,0.81-0.232,1.212c-1.139,0.473-1.938,1.593-1.938,2.9   c-0.002,1.106,0.572,2.073,1.436,2.633c-0.012,0.651-0.002,1.061,0,1.112c0.009,0.334,0.199,0.635,0.498,0.784   c0.39,0.194,0.798,0.292,1.216,0.292h0.001c0.695,0,1.184-0.275,1.271-0.33c0.27-0.165,0.432-0.456,0.432-0.769   c0-0.363-0.01-0.722-0.021-1.079c0.871-0.558,1.453-1.53,1.453-2.643c0-1.372-0.885-2.525-2.109-2.954   c-0.131-0.693-0.233-1.126-0.246-1.177c-0.098-0.405-0.461-0.69-0.877-0.69c0,0,0,0-0.002,0s-0.004,0-0.008,0   C50.555,9.843,50.193,10.139,50.104,10.548z"/>
	<path d="M63.725,13.978c0.976,0,1.789-0.691,1.978-1.61c0.026-0.131,0.041-0.268,0.041-0.407c0-1.114-0.904-2.017-2.019-2.017   c-1.113,0-2.018,0.903-2.018,2.017C61.707,13.075,62.609,13.978,63.725,13.978z M63.334,11.036c0.12-0.051,0.252-0.079,0.391-0.079   c0.553,0,1.004,0.45,1.004,1.004c0,0.554-0.451,1.004-1.004,1.004c-0.555,0-1.006-0.45-1.006-1.004   C62.719,11.544,62.973,11.188,63.334,11.036z"/>
	<path d="M63.725,19.482c0.976,0,1.789-0.691,1.978-1.61c0.026-0.131,0.041-0.268,0.041-0.407c0-1.114-0.904-2.017-2.019-2.017   c-1.113,0-2.018,0.903-2.018,2.017C61.707,18.58,62.609,19.482,63.725,19.482z M63.725,16.461c0.553,0,1.004,0.45,1.004,1.004   c0,0.554-0.451,1.004-1.004,1.004c-0.555,0-1.006-0.45-1.006-1.004C62.719,16.912,63.17,16.461,63.725,16.461z"/>
	<polygon points="72.593,19.481 76.616,19.481 76.617,19.481 77.57,18.458 76.617,15.046 76.616,15.046 72.57,15.046 73.546,18.458     "/>
	<rect x="72.57" y="9.943" width="4.047" height="4.033"/>
	<polygon points="72.57,19.464 72.57,19.481 72.592,19.481 72.593,19.481 72.592,19.48  "/>
</g>
</svg>